<svg xmlns="http://www.w3.org/2000/svg" xmlns:xlink="http://www.w3.org/1999/xlink" width="500" zoomAndPan="magnify" viewBox="0 0 375 374.999991" height="500" preserveAspectRatio="xMidYMid meet" version="1.0"><defs><g/><clipPath id="2a335c9503"><path d="M 75.363281 37.5 L 300 37.5 L 300 214 L 75.363281 214 Z M 75.363281 37.5 " clip-rule="nonzero"/></clipPath><clipPath id="95080df718"><path d="M 75.363281 210 L 300 210 L 300 262 L 75.363281 262 Z M 75.363281 210 " clip-rule="nonzero"/></clipPath></defs><g fill="#966d36" fill-opacity="1"><g transform="translate(24.481744, 325.309487)"><g><path d="M 5.640625 -35.515625 C 6.640625 -35.515625 7.46875 -35.253906 8.125 -34.734375 C 8.78125 -34.222656 9.257812 -33.578125 9.5625 -32.796875 L 18.359375 -10.015625 L 27.265625 -33.0625 C 27.535156 -33.695312 27.988281 -34.265625 28.625 -34.765625 C 29.257812 -35.265625 30.050781 -35.515625 31 -35.515625 C 32.070312 -35.515625 32.972656 -35.160156 33.703125 -34.453125 C 34.441406 -33.753906 34.8125 -32.867188 34.8125 -31.796875 C 34.8125 -31.492188 34.769531 -31.191406 34.6875 -30.890625 C 34.601562 -30.585938 34.507812 -30.320312 34.40625 -30.09375 L 22.890625 -2.515625 C 22.054688 -0.472656 20.597656 0.546875 18.515625 0.546875 L 18.015625 0.546875 C 15.929688 0.546875 14.472656 -0.472656 13.640625 -2.515625 L 2.21875 -29.828125 C 2.082031 -30.128906 1.972656 -30.429688 1.890625 -30.734375 C 1.804688 -31.035156 1.765625 -31.359375 1.765625 -31.703125 C 1.765625 -32.773438 2.140625 -33.675781 2.890625 -34.40625 C 3.648438 -35.144531 4.566406 -35.515625 5.640625 -35.515625 Z M 5.640625 -35.515625 "/></g></g></g><g fill="#966d36" fill-opacity="1"><g transform="translate(55.772061, 325.309487)"><g><path d="M 1.8125 -7.84375 C 1.8125 -9.320312 2.078125 -10.597656 2.609375 -11.671875 C 3.148438 -12.742188 3.898438 -13.628906 4.859375 -14.328125 C 5.816406 -15.035156 6.957031 -15.566406 8.28125 -15.921875 C 9.601562 -16.273438 11.066406 -16.453125 12.671875 -16.453125 C 14.085938 -16.453125 15.296875 -16.347656 16.296875 -16.140625 C 17.304688 -15.941406 18.296875 -15.675781 19.265625 -15.34375 L 19.265625 -15.796875 C 19.265625 -19.085938 17.335938 -20.734375 13.484375 -20.734375 C 12.410156 -20.734375 11.425781 -20.695312 10.53125 -20.625 C 9.644531 -20.5625 8.867188 -20.34375 8.203125 -19.96875 C 7.929688 -19.832031 7.5625 -19.765625 7.09375 -19.765625 C 6.21875 -19.765625 5.46875 -20.066406 4.84375 -20.671875 C 4.226562 -21.273438 3.921875 -22.015625 3.921875 -22.890625 C 3.921875 -23.566406 4.113281 -24.171875 4.5 -24.703125 C 4.882812 -25.242188 5.378906 -25.628906 5.984375 -25.859375 C 7.191406 -26.328125 8.472656 -26.675781 9.828125 -26.90625 C 11.191406 -27.144531 12.78125 -27.265625 14.59375 -27.265625 C 18.550781 -27.265625 21.539062 -26.316406 23.5625 -24.421875 C 25.59375 -22.523438 26.609375 -19.597656 26.609375 -15.640625 L 26.609375 -3.375 C 26.609375 -2.332031 26.25 -1.457031 25.53125 -0.75 C 24.8125 -0.0507812 23.929688 0.296875 22.890625 0.296875 C 21.785156 0.296875 20.894531 -0.0234375 20.21875 -0.671875 C 19.550781 -1.328125 19.21875 -2.0625 19.21875 -2.875 L 19.21875 -2.921875 C 18.28125 -1.878906 17.164062 -1.046875 15.875 -0.421875 C 14.582031 0.191406 12.976562 0.5 11.0625 0.5 C 9.789062 0.5 8.59375 0.328125 7.46875 -0.015625 C 6.34375 -0.367188 5.359375 -0.898438 4.515625 -1.609375 C 3.679688 -2.316406 3.019531 -3.179688 2.53125 -4.203125 C 2.050781 -5.222656 1.8125 -6.40625 1.8125 -7.75 Z M 9.203125 -8.15625 L 9.203125 -8.046875 C 9.203125 -7.003906 9.585938 -6.195312 10.359375 -5.625 C 11.128906 -5.0625 12.140625 -4.78125 13.390625 -4.78125 C 15.191406 -4.78125 16.640625 -5.210938 17.734375 -6.078125 C 18.828125 -6.953125 19.375 -8.097656 19.375 -9.515625 L 19.375 -10.875 C 18.695312 -11.175781 17.945312 -11.414062 17.125 -11.59375 C 16.3125 -11.78125 15.429688 -11.875 14.484375 -11.875 C 12.847656 -11.875 11.554688 -11.554688 10.609375 -10.921875 C 9.671875 -10.285156 9.203125 -9.363281 9.203125 -8.15625 Z M 9.203125 -8.15625 "/></g></g></g><g fill="#966d36" fill-opacity="1"><g transform="translate(80.321031, 325.309487)"><g><path d="M 4.28125 -8.203125 C 4.8125 -8.203125 5.3125 -8.066406 5.78125 -7.796875 C 7.125 -7.054688 8.40625 -6.46875 9.625 -6.03125 C 10.851562 -5.601562 12.003906 -5.390625 13.078125 -5.390625 C 14.179688 -5.390625 14.992188 -5.570312 15.515625 -5.9375 C 16.035156 -6.300781 16.296875 -6.785156 16.296875 -7.390625 L 16.296875 -7.5 C 16.296875 -7.894531 16.144531 -8.242188 15.84375 -8.546875 C 15.539062 -8.847656 15.128906 -9.109375 14.609375 -9.328125 C 14.097656 -9.546875 13.503906 -9.753906 12.828125 -9.953125 C 12.160156 -10.160156 11.457031 -10.378906 10.71875 -10.609375 C 9.78125 -10.878906 8.832031 -11.207031 7.875 -11.59375 C 6.914062 -11.976562 6.050781 -12.476562 5.28125 -13.09375 C 4.507812 -13.71875 3.878906 -14.484375 3.390625 -15.390625 C 2.910156 -16.296875 2.671875 -17.40625 2.671875 -18.71875 L 2.671875 -18.8125 C 2.671875 -20.1875 2.925781 -21.398438 3.4375 -22.453125 C 3.957031 -23.515625 4.660156 -24.414062 5.546875 -25.15625 C 6.441406 -25.894531 7.492188 -26.445312 8.703125 -26.8125 C 9.910156 -27.1875 11.1875 -27.375 12.53125 -27.375 C 13.9375 -27.375 15.34375 -27.179688 16.75 -26.796875 C 18.164062 -26.410156 19.539062 -25.914062 20.875 -25.3125 C 22.082031 -24.769531 22.6875 -23.8125 22.6875 -22.4375 C 22.6875 -21.5625 22.394531 -20.835938 21.8125 -20.265625 C 21.226562 -19.703125 20.5 -19.421875 19.625 -19.421875 C 19.125 -19.421875 18.65625 -19.535156 18.21875 -19.765625 C 17.144531 -20.367188 16.101562 -20.804688 15.09375 -21.078125 C 14.082031 -21.347656 13.175781 -21.484375 12.375 -21.484375 C 11.4375 -21.484375 10.734375 -21.304688 10.265625 -20.953125 C 9.796875 -20.597656 9.5625 -20.15625 9.5625 -19.625 L 9.5625 -19.515625 C 9.5625 -19.179688 9.710938 -18.863281 10.015625 -18.5625 C 10.316406 -18.257812 10.71875 -17.984375 11.21875 -17.734375 C 11.71875 -17.484375 12.296875 -17.238281 12.953125 -17 C 13.609375 -16.769531 14.304688 -16.535156 15.046875 -16.296875 C 15.984375 -15.992188 16.9375 -15.632812 17.90625 -15.21875 C 18.882812 -14.800781 19.757812 -14.289062 20.53125 -13.6875 C 21.300781 -13.082031 21.9375 -12.34375 22.4375 -11.46875 C 22.9375 -10.59375 23.1875 -9.535156 23.1875 -8.296875 L 23.1875 -8.203125 C 23.1875 -6.691406 22.925781 -5.390625 22.40625 -4.296875 C 21.894531 -3.210938 21.164062 -2.316406 20.21875 -1.609375 C 19.28125 -0.898438 18.191406 -0.367188 16.953125 -0.015625 C 15.710938 0.328125 14.351562 0.5 12.875 0.5 C 11.164062 0.5 9.445312 0.265625 7.71875 -0.203125 C 5.988281 -0.671875 4.320312 -1.457031 2.71875 -2.5625 C 2.3125 -2.832031 1.96875 -3.1875 1.6875 -3.625 C 1.40625 -4.0625 1.265625 -4.582031 1.265625 -5.1875 C 1.265625 -6.050781 1.546875 -6.769531 2.109375 -7.34375 C 2.679688 -7.914062 3.40625 -8.203125 4.28125 -8.203125 Z M 4.28125 -8.203125 "/></g></g></g><g fill="#966d36" fill-opacity="1"><g transform="translate(100.342227, 325.309487)"><g><path d="M 3.21875 -23.453125 C 3.21875 -24.523438 3.585938 -25.425781 4.328125 -26.15625 C 5.066406 -26.894531 5.972656 -27.265625 7.046875 -27.265625 C 8.117188 -27.265625 9.023438 -26.894531 9.765625 -26.15625 C 10.503906 -25.425781 10.875 -24.523438 10.875 -23.453125 L 10.875 -11.921875 C 10.875 -8.265625 12.414062 -6.4375 15.5 -6.4375 C 17.007812 -6.4375 18.179688 -6.894531 19.015625 -7.8125 C 19.859375 -8.738281 20.28125 -10.109375 20.28125 -11.921875 L 20.28125 -23.453125 C 20.28125 -24.523438 20.644531 -25.425781 21.375 -26.15625 C 22.113281 -26.894531 23.019531 -27.265625 24.09375 -27.265625 C 25.164062 -27.265625 26.070312 -26.894531 26.8125 -26.15625 C 27.550781 -25.425781 27.921875 -24.523438 27.921875 -23.453125 L 27.921875 -3.515625 C 27.921875 -2.441406 27.550781 -1.535156 26.8125 -0.796875 C 26.070312 -0.0664062 25.164062 0.296875 24.09375 0.296875 C 23.019531 0.296875 22.113281 -0.0664062 21.375 -0.796875 C 20.644531 -1.535156 20.28125 -2.441406 20.28125 -3.515625 L 20.28125 -3.828125 C 19.40625 -2.679688 18.347656 -1.671875 17.109375 -0.796875 C 15.867188 0.0664062 14.289062 0.5 12.375 0.5 C 9.425781 0.5 7.160156 -0.378906 5.578125 -2.140625 C 4.003906 -3.898438 3.21875 -6.359375 3.21875 -9.515625 Z M 3.21875 -23.453125 "/></g></g></g><g fill="#966d36" fill-opacity="1"><g transform="translate(126.450752, 325.309487)"><g><path d="M 2.21875 -13.53125 C 2.21875 -15.78125 2.5625 -17.769531 3.25 -19.5 C 3.9375 -21.226562 4.835938 -22.6875 5.953125 -23.875 C 7.078125 -25.0625 8.378906 -25.957031 9.859375 -26.5625 C 11.335938 -27.164062 12.878906 -27.46875 14.484375 -27.46875 C 16.535156 -27.46875 18.222656 -27.066406 19.546875 -26.265625 C 20.867188 -25.460938 21.984375 -24.523438 22.890625 -23.453125 L 22.890625 -33.203125 C 22.890625 -34.273438 23.257812 -35.179688 24 -35.921875 C 24.738281 -36.660156 25.644531 -37.03125 26.71875 -37.03125 C 27.789062 -37.03125 28.695312 -36.660156 29.4375 -35.921875 C 30.175781 -35.179688 30.546875 -34.273438 30.546875 -33.203125 L 30.546875 -3.515625 C 30.546875 -2.441406 30.175781 -1.535156 29.4375 -0.796875 C 28.695312 -0.0664062 27.789062 0.296875 26.71875 0.296875 C 25.644531 0.296875 24.738281 -0.0664062 24 -0.796875 C 23.257812 -1.535156 22.890625 -2.441406 22.890625 -3.515625 L 22.890625 -3.875 C 21.953125 -2.601562 20.820312 -1.554688 19.5 -0.734375 C 18.175781 0.0859375 16.503906 0.5 14.484375 0.5 C 12.910156 0.5 11.382812 0.195312 9.90625 -0.40625 C 8.4375 -1.007812 7.128906 -1.90625 5.984375 -3.09375 C 4.847656 -4.28125 3.9375 -5.738281 3.25 -7.46875 C 2.5625 -9.195312 2.21875 -11.1875 2.21875 -13.4375 Z M 9.859375 -13.53125 L 9.859375 -13.4375 C 9.859375 -12.320312 10.035156 -11.300781 10.390625 -10.375 C 10.742188 -9.457031 11.222656 -8.671875 11.828125 -8.015625 C 12.429688 -7.367188 13.125 -6.867188 13.90625 -6.515625 C 14.695312 -6.160156 15.546875 -5.984375 16.453125 -5.984375 C 17.359375 -5.984375 18.203125 -6.160156 18.984375 -6.515625 C 19.773438 -6.867188 20.460938 -7.367188 21.046875 -8.015625 C 21.640625 -8.671875 22.113281 -9.457031 22.46875 -10.375 C 22.820312 -11.300781 23 -12.320312 23 -13.4375 L 23 -13.53125 C 23 -14.632812 22.820312 -15.648438 22.46875 -16.578125 C 22.113281 -17.503906 21.640625 -18.289062 21.046875 -18.9375 C 20.460938 -19.59375 19.773438 -20.097656 18.984375 -20.453125 C 18.203125 -20.804688 17.359375 -20.984375 16.453125 -20.984375 C 15.546875 -20.984375 14.695312 -20.804688 13.90625 -20.453125 C 13.125 -20.097656 12.429688 -19.59375 11.828125 -18.9375 C 11.222656 -18.289062 10.742188 -17.515625 10.390625 -16.609375 C 10.035156 -15.703125 9.859375 -14.675781 9.859375 -13.53125 Z M 9.859375 -13.53125 "/></g></g></g><g fill="#966d36" fill-opacity="1"><g transform="translate(155.175326, 325.309487)"><g><path d="M 7.25 -37.03125 C 8.320312 -37.03125 9.222656 -36.660156 9.953125 -35.921875 C 10.691406 -35.179688 11.0625 -34.273438 11.0625 -33.203125 L 11.0625 -23.140625 C 11.9375 -24.285156 12.992188 -25.289062 14.234375 -26.15625 C 15.472656 -27.03125 17.050781 -27.46875 18.96875 -27.46875 C 21.914062 -27.46875 24.175781 -26.585938 25.75 -24.828125 C 27.332031 -23.066406 28.125 -20.609375 28.125 -17.453125 L 28.125 -3.515625 C 28.125 -2.441406 27.753906 -1.535156 27.015625 -0.796875 C 26.273438 -0.0664062 25.367188 0.296875 24.296875 0.296875 C 23.222656 0.296875 22.316406 -0.0664062 21.578125 -0.796875 C 20.847656 -1.535156 20.484375 -2.441406 20.484375 -3.515625 L 20.484375 -15.046875 C 20.484375 -18.703125 18.9375 -20.53125 15.84375 -20.53125 C 14.332031 -20.53125 13.15625 -20.066406 12.3125 -19.140625 C 11.476562 -18.222656 11.0625 -16.859375 11.0625 -15.046875 L 11.0625 -3.515625 C 11.0625 -2.441406 10.691406 -1.535156 9.953125 -0.796875 C 9.222656 -0.0664062 8.320312 0.296875 7.25 0.296875 C 6.175781 0.296875 5.269531 -0.0664062 4.53125 -0.796875 C 3.789062 -1.535156 3.421875 -2.441406 3.421875 -3.515625 L 3.421875 -33.203125 C 3.421875 -34.273438 3.789062 -35.179688 4.53125 -35.921875 C 5.269531 -36.660156 6.175781 -37.03125 7.25 -37.03125 Z M 7.25 -37.03125 "/></g></g></g><g fill="#966d36" fill-opacity="1"><g transform="translate(181.283851, 325.309487)"><g><path d="M 1.8125 -7.84375 C 1.8125 -9.320312 2.078125 -10.597656 2.609375 -11.671875 C 3.148438 -12.742188 3.898438 -13.628906 4.859375 -14.328125 C 5.816406 -15.035156 6.957031 -15.566406 8.28125 -15.921875 C 9.601562 -16.273438 11.066406 -16.453125 12.671875 -16.453125 C 14.085938 -16.453125 15.296875 -16.347656 16.296875 -16.140625 C 17.304688 -15.941406 18.296875 -15.675781 19.265625 -15.34375 L 19.265625 -15.796875 C 19.265625 -19.085938 17.335938 -20.734375 13.484375 -20.734375 C 12.410156 -20.734375 11.425781 -20.695312 10.53125 -20.625 C 9.644531 -20.5625 8.867188 -20.34375 8.203125 -19.96875 C 7.929688 -19.832031 7.5625 -19.765625 7.09375 -19.765625 C 6.21875 -19.765625 5.46875 -20.066406 4.84375 -20.671875 C 4.226562 -21.273438 3.921875 -22.015625 3.921875 -22.890625 C 3.921875 -23.566406 4.113281 -24.171875 4.5 -24.703125 C 4.882812 -25.242188 5.378906 -25.628906 5.984375 -25.859375 C 7.191406 -26.328125 8.472656 -26.675781 9.828125 -26.90625 C 11.191406 -27.144531 12.78125 -27.265625 14.59375 -27.265625 C 18.550781 -27.265625 21.539062 -26.316406 23.5625 -24.421875 C 25.59375 -22.523438 26.609375 -19.597656 26.609375 -15.640625 L 26.609375 -3.375 C 26.609375 -2.332031 26.25 -1.457031 25.53125 -0.75 C 24.8125 -0.0507812 23.929688 0.296875 22.890625 0.296875 C 21.785156 0.296875 20.894531 -0.0234375 20.21875 -0.671875 C 19.550781 -1.328125 19.21875 -2.0625 19.21875 -2.875 L 19.21875 -2.921875 C 18.28125 -1.878906 17.164062 -1.046875 15.875 -0.421875 C 14.582031 0.191406 12.976562 0.5 11.0625 0.5 C 9.789062 0.5 8.59375 0.328125 7.46875 -0.015625 C 6.34375 -0.367188 5.359375 -0.898438 4.515625 -1.609375 C 3.679688 -2.316406 3.019531 -3.179688 2.53125 -4.203125 C 2.050781 -5.222656 1.8125 -6.40625 1.8125 -7.75 Z M 9.203125 -8.15625 L 9.203125 -8.046875 C 9.203125 -7.003906 9.585938 -6.195312 10.359375 -5.625 C 11.128906 -5.0625 12.140625 -4.78125 13.390625 -4.78125 C 15.191406 -4.78125 16.640625 -5.210938 17.734375 -6.078125 C 18.828125 -6.953125 19.375 -8.097656 19.375 -9.515625 L 19.375 -10.875 C 18.695312 -11.175781 17.945312 -11.414062 17.125 -11.59375 C 16.3125 -11.78125 15.429688 -11.875 14.484375 -11.875 C 12.847656 -11.875 11.554688 -11.554688 10.609375 -10.921875 C 9.671875 -10.285156 9.203125 -9.363281 9.203125 -8.15625 Z M 9.203125 -8.15625 "/></g></g></g><g fill="#966d36" fill-opacity="1"><g transform="translate(205.832821, 325.309487)"><g/></g></g><g fill="#966d36" fill-opacity="1"><g transform="translate(215.691676, 325.309487)"><g><path d="M 4.21875 -3.46875 L 4.21875 -31.546875 C 4.21875 -32.617188 4.59375 -33.53125 5.34375 -34.28125 C 6.101562 -35.039062 7.019531 -35.421875 8.09375 -35.421875 L 8.953125 -35.421875 C 9.796875 -35.421875 10.5 -35.226562 11.0625 -34.84375 C 11.632812 -34.457031 12.109375 -33.976562 12.484375 -33.40625 L 21.828125 -18.15625 L 31.25 -33.453125 C 32.050781 -34.765625 33.207031 -35.421875 34.71875 -35.421875 L 35.578125 -35.421875 C 36.648438 -35.421875 37.5625 -35.039062 38.3125 -34.28125 C 39.0625 -33.53125 39.4375 -32.617188 39.4375 -31.546875 L 39.4375 -3.578125 C 39.4375 -2.503906 39.0625 -1.585938 38.3125 -0.828125 C 37.5625 -0.078125 36.648438 0.296875 35.578125 0.296875 C 34.503906 0.296875 33.597656 -0.078125 32.859375 -0.828125 C 32.117188 -1.585938 31.75 -2.503906 31.75 -3.578125 L 31.75 -21.125 L 24.953125 -10.671875 C 24.546875 -10.066406 24.082031 -9.585938 23.5625 -9.234375 C 23.050781 -8.878906 22.441406 -8.703125 21.734375 -8.703125 C 21.023438 -8.703125 20.410156 -8.878906 19.890625 -9.234375 C 19.378906 -9.585938 18.921875 -10.066406 18.515625 -10.671875 L 11.828125 -20.984375 L 11.828125 -3.46875 C 11.828125 -2.394531 11.457031 -1.5 10.71875 -0.78125 C 9.976562 -0.0625 9.070312 0.296875 8 0.296875 C 6.925781 0.296875 6.023438 -0.0625 5.296875 -0.78125 C 4.578125 -1.5 4.21875 -2.394531 4.21875 -3.46875 Z M 4.21875 -3.46875 "/></g></g></g><g fill="#966d36" fill-opacity="1"><g transform="translate(254.125818, 325.309487)"><g><path d="M 7.59375 -27.265625 C 8.664062 -27.265625 9.570312 -26.894531 10.3125 -26.15625 C 11.050781 -25.425781 11.421875 -24.523438 11.421875 -23.453125 L 11.421875 -3.515625 C 11.421875 -2.441406 11.050781 -1.535156 10.3125 -0.796875 C 9.570312 -0.0664062 8.664062 0.296875 7.59375 0.296875 C 6.519531 0.296875 5.613281 -0.0664062 4.875 -0.796875 C 4.144531 -1.535156 3.78125 -2.441406 3.78125 -3.515625 L 3.78125 -23.453125 C 3.78125 -24.523438 4.144531 -25.425781 4.875 -26.15625 C 5.613281 -26.894531 6.519531 -27.265625 7.59375 -27.265625 Z M 7.59375 -36.984375 C 8.800781 -36.984375 9.816406 -36.660156 10.640625 -36.015625 C 11.460938 -35.378906 11.875 -34.507812 11.875 -33.40625 L 11.875 -33.3125 C 11.875 -32.195312 11.460938 -31.3125 10.640625 -30.65625 C 9.816406 -30.007812 8.800781 -29.6875 7.59375 -29.6875 C 6.382812 -29.6875 5.367188 -30.007812 4.546875 -30.65625 C 3.734375 -31.3125 3.328125 -32.195312 3.328125 -33.3125 L 3.328125 -33.40625 C 3.328125 -34.507812 3.734375 -35.378906 4.546875 -36.015625 C 5.367188 -36.660156 6.382812 -36.984375 7.59375 -36.984375 Z M 7.59375 -36.984375 "/></g></g></g><g fill="#966d36" fill-opacity="1"><g transform="translate(264.085289, 325.309487)"><g><path d="M 3.78125 -33.203125 C 3.78125 -34.273438 4.144531 -35.179688 4.875 -35.921875 C 5.613281 -36.660156 6.519531 -37.03125 7.59375 -37.03125 C 8.664062 -37.03125 9.570312 -36.660156 10.3125 -35.921875 C 11.050781 -35.179688 11.421875 -34.273438 11.421875 -33.203125 L 11.421875 -3.515625 C 11.421875 -2.441406 11.050781 -1.535156 10.3125 -0.796875 C 9.570312 -0.0664062 8.664062 0.296875 7.59375 0.296875 C 6.519531 0.296875 5.613281 -0.0664062 4.875 -0.796875 C 4.144531 -1.535156 3.78125 -2.441406 3.78125 -3.515625 Z M 3.78125 -33.203125 "/></g></g></g><g fill="#966d36" fill-opacity="1"><g transform="translate(274.044761, 325.309487)"><g><path d="M 3.78125 -33.203125 C 3.78125 -34.273438 4.144531 -35.179688 4.875 -35.921875 C 5.613281 -36.660156 6.519531 -37.03125 7.59375 -37.03125 C 8.664062 -37.03125 9.570312 -36.660156 10.3125 -35.921875 C 11.050781 -35.179688 11.421875 -34.273438 11.421875 -33.203125 L 11.421875 -3.515625 C 11.421875 -2.441406 11.050781 -1.535156 10.3125 -0.796875 C 9.570312 -0.0664062 8.664062 0.296875 7.59375 0.296875 C 6.519531 0.296875 5.613281 -0.0664062 4.875 -0.796875 C 4.144531 -1.535156 3.78125 -2.441406 3.78125 -3.515625 Z M 3.78125 -33.203125 "/></g></g></g><g fill="#966d36" fill-opacity="1"><g transform="translate(284.004232, 325.309487)"><g><path d="M 2.109375 -13.4375 C 2.109375 -15.34375 2.4375 -17.148438 3.09375 -18.859375 C 3.75 -20.578125 4.660156 -22.070312 5.828125 -23.34375 C 7.003906 -24.613281 8.414062 -25.617188 10.0625 -26.359375 C 11.707031 -27.097656 13.503906 -27.46875 15.453125 -27.46875 C 17.734375 -27.46875 19.6875 -27.054688 21.3125 -26.234375 C 22.9375 -25.410156 24.273438 -24.363281 25.328125 -23.09375 C 26.390625 -21.820312 27.171875 -20.421875 27.671875 -18.890625 C 28.171875 -17.367188 28.421875 -15.898438 28.421875 -14.484375 C 28.421875 -13.378906 28.078125 -12.488281 27.390625 -11.8125 C 26.703125 -11.144531 25.859375 -10.8125 24.859375 -10.8125 L 9.703125 -10.8125 C 10.078125 -9.070312 10.84375 -7.753906 12 -6.859375 C 13.15625 -5.972656 14.585938 -5.53125 16.296875 -5.53125 C 17.367188 -5.53125 18.347656 -5.6875 19.234375 -6 C 20.128906 -6.320312 20.960938 -6.769531 21.734375 -7.34375 C 22.003906 -7.539062 22.28125 -7.691406 22.5625 -7.796875 C 22.851562 -7.898438 23.195312 -7.953125 23.59375 -7.953125 C 24.46875 -7.953125 25.179688 -7.664062 25.734375 -7.09375 C 26.285156 -6.519531 26.5625 -5.800781 26.5625 -4.9375 C 26.5625 -4.425781 26.460938 -3.984375 26.265625 -3.609375 C 26.066406 -3.242188 25.832031 -2.929688 25.5625 -2.671875 C 24.382812 -1.660156 23.03125 -0.859375 21.5 -0.265625 C 19.976562 0.316406 18.210938 0.609375 16.203125 0.609375 C 14.191406 0.609375 12.320312 0.273438 10.59375 -0.390625 C 8.863281 -1.066406 7.367188 -2.023438 6.109375 -3.265625 C 4.847656 -4.503906 3.863281 -5.976562 3.15625 -7.6875 C 2.457031 -9.40625 2.109375 -11.285156 2.109375 -13.328125 Z M 9.609375 -15.59375 L 21.125 -15.59375 C 20.894531 -17.300781 20.289062 -18.679688 19.3125 -19.734375 C 18.34375 -20.796875 17.054688 -21.328125 15.453125 -21.328125 C 13.835938 -21.328125 12.535156 -20.804688 11.546875 -19.765625 C 10.554688 -18.734375 9.910156 -17.34375 9.609375 -15.59375 Z M 9.609375 -15.59375 "/></g></g></g><g fill="#966d36" fill-opacity="1"><g transform="translate(309.609674, 325.309487)"><g><path d="M 3.265625 -26.96875 L 4.671875 -26.96875 L 4.671875 -30.34375 C 4.671875 -31.414062 5.039062 -32.316406 5.78125 -33.046875 C 6.519531 -33.785156 7.425781 -34.15625 8.5 -34.15625 C 9.570312 -34.15625 10.476562 -33.785156 11.21875 -33.046875 C 11.957031 -32.316406 12.328125 -31.414062 12.328125 -30.34375 L 12.328125 -26.96875 L 15.703125 -26.96875 C 16.609375 -26.96875 17.378906 -26.648438 18.015625 -26.015625 C 18.648438 -25.378906 18.96875 -24.609375 18.96875 -23.703125 C 18.96875 -22.796875 18.648438 -22.019531 18.015625 -21.375 C 17.378906 -20.738281 16.609375 -20.421875 15.703125 -20.421875 L 12.328125 -20.421875 L 12.328125 -8.90625 C 12.328125 -7.164062 13.148438 -6.296875 14.796875 -6.296875 C 14.929688 -6.296875 15.097656 -6.300781 15.296875 -6.3125 C 15.492188 -6.332031 15.628906 -6.34375 15.703125 -6.34375 C 16.566406 -6.34375 17.3125 -6.03125 17.9375 -5.40625 C 18.5625 -4.789062 18.875 -4.046875 18.875 -3.171875 C 18.875 -2.367188 18.65625 -1.726562 18.21875 -1.25 C 17.78125 -0.78125 17.234375 -0.421875 16.578125 -0.171875 C 15.921875 0.078125 15.234375 0.242188 14.515625 0.328125 C 13.796875 0.410156 13.132812 0.453125 12.53125 0.453125 C 11.382812 0.453125 10.328125 0.328125 9.359375 0.078125 C 8.390625 -0.171875 7.5625 -0.613281 6.875 -1.25 C 6.1875 -1.894531 5.644531 -2.734375 5.25 -3.765625 C 4.863281 -4.804688 4.671875 -6.097656 4.671875 -7.640625 L 4.671875 -20.421875 L 3.265625 -20.421875 C 2.359375 -20.421875 1.585938 -20.738281 0.953125 -21.375 C 0.316406 -22.019531 0 -22.796875 0 -23.703125 C 0 -24.609375 0.316406 -25.378906 0.953125 -26.015625 C 1.585938 -26.648438 2.359375 -26.96875 3.265625 -26.96875 Z M 3.265625 -26.96875 "/></g></g></g><g fill="#966d36" fill-opacity="1"><g transform="translate(325.25402, 325.309487)"><g><path d="M 4.28125 -8.203125 C 4.8125 -8.203125 5.3125 -8.066406 5.78125 -7.796875 C 7.125 -7.054688 8.40625 -6.46875 9.625 -6.03125 C 10.851562 -5.601562 12.003906 -5.390625 13.078125 -5.390625 C 14.179688 -5.390625 14.992188 -5.570312 15.515625 -5.9375 C 16.035156 -6.300781 16.296875 -6.785156 16.296875 -7.390625 L 16.296875 -7.5 C 16.296875 -7.894531 16.144531 -8.242188 15.84375 -8.546875 C 15.539062 -8.847656 15.128906 -9.109375 14.609375 -9.328125 C 14.097656 -9.546875 13.503906 -9.753906 12.828125 -9.953125 C 12.160156 -10.160156 11.457031 -10.378906 10.71875 -10.609375 C 9.78125 -10.878906 8.832031 -11.207031 7.875 -11.59375 C 6.914062 -11.976562 6.050781 -12.476562 5.28125 -13.09375 C 4.507812 -13.71875 3.878906 -14.484375 3.390625 -15.390625 C 2.910156 -16.296875 2.671875 -17.40625 2.671875 -18.71875 L 2.671875 -18.8125 C 2.671875 -20.1875 2.925781 -21.398438 3.4375 -22.453125 C 3.957031 -23.515625 4.660156 -24.414062 5.546875 -25.15625 C 6.441406 -25.894531 7.492188 -26.445312 8.703125 -26.8125 C 9.910156 -27.1875 11.1875 -27.375 12.53125 -27.375 C 13.9375 -27.375 15.34375 -27.179688 16.75 -26.796875 C 18.164062 -26.410156 19.539062 -25.914062 20.875 -25.3125 C 22.082031 -24.769531 22.6875 -23.8125 22.6875 -22.4375 C 22.6875 -21.5625 22.394531 -20.835938 21.8125 -20.265625 C 21.226562 -19.703125 20.5 -19.421875 19.625 -19.421875 C 19.125 -19.421875 18.65625 -19.535156 18.21875 -19.765625 C 17.144531 -20.367188 16.101562 -20.804688 15.09375 -21.078125 C 14.082031 -21.347656 13.175781 -21.484375 12.375 -21.484375 C 11.4375 -21.484375 10.734375 -21.304688 10.265625 -20.953125 C 9.796875 -20.597656 9.5625 -20.15625 9.5625 -19.625 L 9.5625 -19.515625 C 9.5625 -19.179688 9.710938 -18.863281 10.015625 -18.5625 C 10.316406 -18.257812 10.71875 -17.984375 11.21875 -17.734375 C 11.71875 -17.484375 12.296875 -17.238281 12.953125 -17 C 13.609375 -16.769531 14.304688 -16.535156 15.046875 -16.296875 C 15.984375 -15.992188 16.9375 -15.632812 17.90625 -15.21875 C 18.882812 -14.800781 19.757812 -14.289062 20.53125 -13.6875 C 21.300781 -13.082031 21.9375 -12.34375 22.4375 -11.46875 C 22.9375 -10.59375 23.1875 -9.535156 23.1875 -8.296875 L 23.1875 -8.203125 C 23.1875 -6.691406 22.925781 -5.390625 22.40625 -4.296875 C 21.894531 -3.210938 21.164062 -2.316406 20.21875 -1.609375 C 19.28125 -0.898438 18.191406 -0.367188 16.953125 -0.015625 C 15.710938 0.328125 14.351562 0.5 12.875 0.5 C 11.164062 0.5 9.445312 0.265625 7.71875 -0.203125 C 5.988281 -0.671875 4.320312 -1.457031 2.71875 -2.5625 C 2.3125 -2.832031 1.96875 -3.1875 1.6875 -3.625 C 1.40625 -4.0625 1.265625 -4.582031 1.265625 -5.1875 C 1.265625 -6.050781 1.546875 -6.769531 2.109375 -7.34375 C 2.679688 -7.914062 3.40625 -8.203125 4.28125 -8.203125 Z M 4.28125 -8.203125 "/></g></g></g><g clip-path="url(#2a335c9503)"><path fill="#26973c" d="M 273.914062 171.335938 C 273.527344 172.691406 272.027344 177.078125 268.28125 179.4375 C 264.40625 181.875 259.402344 181.332031 258.144531 181.140625 C 257.980469 181.117188 257.878906 180.964844 257.917969 180.8125 C 258.242188 179.632812 259.714844 175.019531 263.589844 172.582031 C 267.335938 170.226562 272.132812 170.652344 273.585938 170.855469 L 282.265625 165.738281 Z M 257.601562 169.101562 C 257.898438 168.023438 259.242188 163.808594 262.78125 161.582031 C 266.203125 159.429688 270.585938 159.824219 271.914062 160.003906 L 279.839844 155.332031 L 272.210938 160.445312 C 271.859375 161.683594 270.484375 165.691406 267.066406 167.84375 C 263.527344 170.070312 258.957031 169.574219 257.808594 169.402344 C 257.65625 169.378906 257.5625 169.242188 257.601562 169.101562 Z M 257.332031 158.648438 C 257.601562 157.65625 258.839844 153.78125 262.09375 151.734375 C 265.238281 149.753906 269.269531 150.113281 270.488281 150.285156 L 277.78125 145.988281 L 270.765625 150.6875 C 270.441406 151.828125 269.179688 155.511719 266.035156 157.492188 C 262.78125 159.535156 258.578125 159.082031 257.519531 158.921875 C 257.386719 158.902344 257.296875 158.777344 257.332031 158.648438 Z M 257.109375 148.675781 C 257.359375 147.753906 258.507812 144.160156 261.527344 142.261719 C 264.449219 140.425781 268.183594 140.757812 269.316406 140.914062 L 276.082031 136.929688 L 269.574219 141.289062 C 269.269531 142.347656 268.101562 145.765625 265.183594 147.601562 C 262.164062 149.5 258.265625 149.078125 257.285156 148.933594 C 257.160156 148.914062 257.078125 148.796875 257.109375 148.675781 Z M 256.902344 139.429688 C 257.136719 138.578125 258.199219 135.242188 261.003906 133.480469 C 263.710938 131.777344 267.179688 132.085938 268.226562 132.230469 L 274.503906 128.535156 L 268.46875 132.578125 C 268.1875 133.5625 267.101562 136.730469 264.394531 138.433594 C 261.59375 140.195312 257.976562 139.804688 257.066406 139.671875 C 256.949219 139.652344 256.875 139.542969 256.902344 139.429688 Z M 251.601562 139.429688 C 251.632812 139.542969 251.558594 139.652344 251.441406 139.671875 C 250.53125 139.804688 246.914062 140.195312 244.113281 138.433594 C 241.402344 136.730469 240.320312 133.5625 240.039062 132.578125 L 234 128.535156 L 240.28125 132.230469 C 241.328125 132.085938 244.796875 131.777344 247.503906 133.480469 C 250.304688 135.242188 251.371094 138.578125 251.601562 139.429688 Z M 251.222656 148.933594 C 250.242188 149.078125 246.34375 149.5 243.320312 147.601562 C 240.40625 145.765625 239.234375 142.347656 238.933594 141.289062 L 232.425781 136.929688 L 239.1875 140.914062 C 240.324219 140.757812 244.058594 140.425781 246.980469 142.261719 C 249.996094 144.160156 251.144531 147.753906 251.398438 148.675781 C 251.429688 148.796875 251.347656 148.914062 251.222656 148.933594 Z M 250.984375 158.921875 C 249.929688 159.082031 245.726562 159.535156 242.472656 157.492188 C 239.328125 155.511719 238.066406 151.828125 237.742188 150.6875 L 230.726562 145.988281 L 238.019531 150.285156 C 239.238281 150.113281 243.265625 149.753906 246.414062 151.734375 C 249.667969 153.78125 250.902344 157.65625 251.175781 158.648438 C 251.207031 158.777344 251.121094 158.902344 250.984375 158.921875 Z M 250.699219 169.402344 C 249.550781 169.574219 244.980469 170.070312 241.441406 167.84375 C 238.019531 165.691406 236.648438 161.683594 236.296875 160.445312 L 228.667969 155.332031 L 236.59375 160.003906 C 237.921875 159.824219 242.304688 159.429688 245.726562 161.582031 C 249.265625 163.808594 250.609375 168.023438 250.90625 169.101562 C 250.945312 169.242188 250.847656 169.378906 250.699219 169.402344 Z M 250.363281 181.140625 C 249.105469 181.332031 244.101562 181.875 240.226562 179.4375 C 236.480469 177.078125 234.980469 172.691406 234.59375 171.335938 L 226.238281 165.738281 L 234.921875 170.855469 C 236.375 170.652344 241.171875 170.226562 244.917969 172.582031 C 248.792969 175.019531 250.265625 179.632812 250.585938 180.8125 C 250.628906 180.964844 250.527344 181.117188 250.363281 181.140625 Z M 208.722656 156.210938 C 202.855469 159.90625 195.269531 159.082031 193.363281 158.800781 C 193.117188 158.761719 192.960938 158.53125 193.023438 158.300781 C 193.511719 156.511719 195.742188 149.519531 201.617188 145.824219 C 207.289062 142.257812 214.558594 142.90625 216.761719 143.210938 L 229.917969 135.457031 L 217.261719 143.9375 C 216.671875 145.992188 214.402344 152.644531 208.722656 156.210938 Z M 192.542969 140.554688 C 192.988281 138.921875 195.027344 132.53125 200.390625 129.15625 C 205.574219 125.898438 212.214844 126.492188 214.226562 126.765625 L 226.238281 119.6875 L 214.679688 127.433594 C 214.144531 129.3125 212.066406 135.386719 206.886719 138.648438 C 201.523438 142.019531 194.59375 141.265625 192.851562 141.007812 C 192.628906 140.976562 192.484375 140.765625 192.542969 140.554688 Z M 192.132812 124.710938 C 192.542969 123.210938 194.417969 117.335938 199.351562 114.234375 C 204.117188 111.238281 210.222656 111.78125 212.070312 112.039062 L 223.117188 105.527344 L 212.488281 112.652344 C 211.996094 114.375 210.085938 119.960938 205.320312 122.957031 C 200.386719 126.058594 194.019531 125.367188 192.421875 125.132812 C 192.214844 125.101562 192.082031 124.90625 192.132812 124.710938 Z M 191.796875 109.601562 C 192.175781 108.207031 193.917969 102.757812 198.492188 99.878906 C 202.914062 97.097656 208.578125 97.605469 210.292969 97.839844 L 220.542969 91.800781 L 210.683594 98.410156 C 210.222656 100.011719 208.453125 105.191406 204.03125 107.972656 C 199.457031 110.851562 193.546875 110.207031 192.0625 109.988281 C 191.871094 109.960938 191.75 109.78125 191.796875 109.601562 Z M 191.484375 95.59375 C 191.835938 94.300781 193.453125 89.246094 197.695312 86.574219 C 201.800781 83.996094 207.054688 84.464844 208.644531 84.683594 L 218.15625 79.082031 L 209.007812 85.210938 C 208.582031 86.695312 206.9375 91.503906 202.835938 94.085938 C 198.589844 96.753906 193.109375 96.160156 191.730469 95.953125 C 191.550781 95.929688 191.4375 95.761719 191.484375 95.59375 Z M 183.449219 95.59375 C 183.496094 95.761719 183.382812 95.929688 183.203125 95.953125 C 181.828125 96.160156 176.34375 96.753906 172.101562 94.085938 C 167.996094 91.503906 166.355469 86.695312 165.929688 85.210938 L 156.78125 79.082031 L 166.292969 84.683594 C 167.882812 84.464844 173.136719 83.996094 177.242188 86.574219 C 181.484375 89.246094 183.097656 94.300781 183.449219 95.59375 Z M 182.875 109.988281 C 181.386719 110.207031 175.480469 110.851562 170.90625 107.972656 C 166.480469 105.191406 164.710938 100.011719 164.253906 98.410156 L 154.390625 91.800781 L 164.640625 97.839844 C 166.355469 97.605469 172.023438 97.097656 176.445312 99.878906 C 181.019531 102.757812 182.757812 108.207031 183.140625 109.601562 C 183.1875 109.78125 183.066406 109.960938 182.875 109.988281 Z M 182.515625 125.132812 C 180.914062 125.367188 174.546875 126.058594 169.617188 122.957031 C 164.851562 119.960938 162.941406 114.375 162.449219 112.652344 L 151.816406 105.527344 L 162.867188 112.039062 C 164.714844 111.78125 170.820312 111.238281 175.585938 114.234375 C 180.515625 117.335938 182.390625 123.210938 182.800781 124.710938 C 182.855469 124.90625 182.722656 125.101562 182.515625 125.132812 Z M 182.082031 141.007812 C 180.339844 141.265625 173.414062 142.019531 168.050781 138.648438 C 162.867188 135.386719 160.789062 129.3125 160.253906 127.433594 L 148.695312 119.6875 L 160.710938 126.765625 C 162.722656 126.492188 169.359375 125.898438 174.546875 129.15625 C 179.910156 132.53125 181.949219 138.921875 182.394531 140.554688 C 182.453125 140.765625 182.308594 140.976562 182.082031 141.007812 Z M 181.570312 158.800781 C 179.664062 159.082031 172.082031 159.90625 166.210938 156.210938 C 160.535156 152.644531 158.261719 145.992188 157.675781 143.9375 L 145.019531 135.457031 L 158.175781 143.210938 C 160.375 142.90625 167.644531 142.257812 173.320312 145.824219 C 179.191406 149.519531 181.425781 156.511719 181.910156 158.300781 C 181.976562 158.53125 181.816406 158.761719 181.570312 158.800781 Z M 140.34375 171.335938 C 139.953125 172.691406 138.457031 177.078125 134.710938 179.4375 C 130.835938 181.875 125.832031 181.332031 124.574219 181.140625 C 124.410156 181.117188 124.304688 180.964844 124.347656 180.8125 C 124.671875 179.632812 126.144531 175.019531 130.019531 172.582031 C 133.765625 170.226562 138.558594 170.652344 140.015625 170.855469 L 148.695312 165.738281 Z M 124.03125 169.101562 C 124.324219 168.023438 125.671875 163.808594 129.210938 161.582031 C 132.632812 159.429688 137.015625 159.824219 138.339844 160.003906 L 146.269531 155.332031 L 138.640625 160.445312 C 138.289062 161.683594 136.917969 165.691406 133.496094 167.84375 C 129.957031 170.070312 125.382812 169.574219 124.238281 169.402344 C 124.089844 169.378906 123.992188 169.242188 124.03125 169.101562 Z M 123.761719 158.648438 C 124.035156 157.65625 125.269531 153.78125 128.523438 151.734375 C 131.667969 149.753906 135.699219 150.113281 136.917969 150.285156 L 144.207031 145.988281 L 137.195312 150.6875 C 136.867188 151.828125 135.609375 155.511719 132.464844 157.492188 C 129.207031 159.535156 125.003906 159.082031 123.953125 158.921875 C 123.8125 158.902344 123.726562 158.777344 123.761719 158.648438 Z M 123.539062 148.675781 C 123.789062 147.753906 124.9375 144.160156 127.957031 142.261719 C 130.875 140.425781 134.613281 140.757812 135.746094 140.914062 L 142.511719 136.929688 L 136.003906 141.289062 C 135.703125 142.347656 134.53125 145.765625 131.613281 147.601562 C 128.59375 149.5 124.695312 149.078125 123.714844 148.933594 C 123.585938 148.914062 123.507812 148.796875 123.539062 148.675781 Z M 123.332031 139.429688 C 123.566406 138.578125 124.632812 135.242188 127.433594 133.480469 C 130.140625 131.777344 133.605469 132.085938 134.660156 132.230469 L 140.933594 128.535156 L 134.894531 132.578125 C 134.617188 133.5625 133.53125 136.730469 130.824219 138.433594 C 128.023438 140.195312 124.40625 139.804688 123.496094 139.671875 C 123.378906 139.652344 123.300781 139.542969 123.332031 139.429688 Z M 118.03125 139.429688 C 118.0625 139.542969 117.988281 139.652344 117.867188 139.671875 C 116.960938 139.804688 113.34375 140.195312 110.542969 138.433594 C 107.835938 136.730469 106.75 133.5625 106.46875 132.578125 L 100.433594 128.535156 L 106.707031 132.230469 C 107.757812 132.085938 111.226562 131.777344 113.933594 133.480469 C 116.734375 135.242188 117.800781 138.578125 118.03125 139.429688 Z M 117.652344 148.933594 C 116.671875 149.078125 112.769531 149.5 109.753906 147.601562 C 106.832031 145.765625 105.664062 142.347656 105.363281 141.289062 L 98.855469 136.929688 L 105.621094 140.914062 C 106.75 140.757812 110.488281 140.425781 113.40625 142.261719 C 116.425781 144.160156 117.574219 147.753906 117.824219 148.675781 C 117.859375 148.796875 117.777344 148.914062 117.652344 148.933594 Z M 117.414062 158.921875 C 116.359375 159.082031 112.15625 159.535156 108.902344 157.492188 C 105.757812 155.511719 104.496094 151.828125 104.171875 150.6875 L 97.15625 145.988281 L 104.445312 150.285156 C 105.667969 150.113281 109.695312 149.753906 112.839844 151.734375 C 116.09375 153.78125 117.332031 157.65625 117.605469 158.648438 C 117.640625 158.777344 117.554688 158.902344 117.414062 158.921875 Z M 117.128906 169.402344 C 115.980469 169.574219 111.40625 170.070312 107.871094 167.84375 C 104.449219 165.691406 103.078125 161.683594 102.722656 160.445312 L 95.09375 155.332031 L 103.027344 160.003906 C 104.351562 159.824219 108.734375 159.429688 112.15625 161.582031 C 115.695312 163.808594 117.039062 168.023438 117.332031 169.101562 C 117.371094 169.242188 117.277344 169.378906 117.128906 169.402344 Z M 116.789062 181.140625 C 115.535156 181.332031 110.53125 181.875 106.65625 179.4375 C 102.910156 177.078125 101.410156 172.691406 101.019531 171.335938 L 92.671875 165.738281 L 101.351562 170.855469 C 102.804688 170.652344 107.601562 170.226562 111.347656 172.582031 C 115.222656 175.019531 116.695312 179.632812 117.015625 180.8125 C 117.058594 180.964844 116.953125 181.117188 116.789062 181.140625 Z M 187.46875 37.484375 C 125.546875 37.484375 75.347656 87.679688 75.347656 149.601562 C 75.347656 173.226562 82.667969 195.128906 95.144531 213.207031 C 102.808594 210.625 111.4375 208.558594 120.269531 206.898438 C 119.910156 203.273438 119.410156 198.105469 119.382812 197.542969 C 119.238281 194.144531 117.613281 190.914062 114.789062 188.859375 C 112.519531 187.207031 109.746094 186.15625 106.726562 185.960938 C 107.070312 185.9375 107.414062 185.921875 107.761719 185.921875 C 112.4375 185.921875 116.613281 187.976562 119.375 191.1875 L 120.484375 134.257812 C 119.742188 133.460938 117.117188 130.398438 117.117188 126.734375 C 117.117188 123.390625 119.300781 120.550781 120.25 119.472656 L 120.683594 107.601562 L 121.113281 119.472656 C 122.0625 120.550781 124.25 123.390625 124.25 126.734375 C 124.25 130.398438 121.625 133.460938 120.878906 134.257812 L 121.980469 190.605469 C 125.636719 185.878906 131.492188 182.8125 138.101562 182.8125 C 138.566406 182.8125 139.023438 182.832031 139.476562 182.859375 C 137.195312 183.007812 135.023438 183.519531 133.015625 184.339844 C 126.628906 186.941406 122.449219 192.886719 121.867188 199.515625 C 121.855469 199.621094 121.847656 199.722656 121.839844 199.820312 L 121.125 206.738281 C 151.1875 201.1875 183.25 200.347656 187.085938 200.265625 C 186.566406 195.046875 185.539062 184.644531 185.5 183.648438 C 185.277344 178.5 182.820312 173.605469 178.535156 170.488281 C 175.097656 167.984375 170.898438 166.394531 166.324219 166.097656 C 166.839844 166.066406 167.359375 166.042969 167.882812 166.042969 C 174.976562 166.042969 181.296875 169.152344 185.484375 174.015625 L 187.167969 87.753906 C 186.039062 86.546875 182.066406 81.90625 182.066406 76.355469 C 182.066406 71.289062 185.375 66.976562 186.8125 65.347656 L 187.46875 47.359375 L 188.125 65.347656 C 189.558594 66.976562 192.871094 71.289062 192.871094 76.355469 C 192.871094 81.90625 188.894531 86.546875 187.765625 87.753906 L 189.433594 173.136719 C 194.972656 165.972656 203.851562 161.328125 213.867188 161.328125 C 214.566406 161.328125 215.261719 161.359375 215.949219 161.402344 C 212.492188 161.625 209.199219 162.402344 206.15625 163.644531 C 196.480469 167.585938 190.144531 176.59375 189.261719 186.640625 C 189.25 186.800781 189.234375 186.953125 189.21875 187.097656 L 187.863281 200.265625 C 191.738281 200.351562 223.785156 201.195312 253.824219 206.742188 C 253.46875 203.125 252.976562 198.097656 252.953125 197.542969 C 252.804688 194.144531 251.183594 190.914062 248.359375 188.859375 C 246.089844 187.207031 243.316406 186.15625 240.296875 185.960938 C 240.640625 185.9375 240.984375 185.921875 241.328125 185.921875 C 246.007812 185.921875 250.183594 187.976562 252.945312 191.1875 L 254.054688 134.257812 C 253.308594 133.460938 250.6875 130.398438 250.6875 126.734375 C 250.6875 123.390625 252.875 120.550781 253.820312 119.472656 L 254.253906 107.601562 L 254.6875 119.472656 C 255.632812 120.550781 257.816406 123.390625 257.816406 126.734375 C 257.816406 130.398438 255.195312 133.460938 254.453125 134.257812 L 255.550781 190.605469 C 259.203125 185.878906 265.066406 182.8125 271.671875 182.8125 C 272.136719 182.8125 272.59375 182.832031 273.046875 182.859375 C 270.769531 183.007812 268.59375 183.519531 266.585938 184.339844 C 260.199219 186.941406 256.019531 192.886719 255.4375 199.515625 C 255.429688 199.621094 255.417969 199.722656 255.410156 199.820312 L 254.679688 206.898438 C 263.503906 208.558594 272.132812 210.625 279.792969 213.207031 C 292.269531 195.128906 299.589844 173.226562 299.589844 149.601562 C 299.589844 87.679688 249.390625 37.484375 187.46875 37.484375 " fill-opacity="1" fill-rule="nonzero"/></g><g clip-path="url(#95080df718)"><path fill="#a27b39" d="M 75.347656 222.9375 C 75.351562 222.9375 90.449219 221.570312 102.3125 222.535156 C 122.878906 246.523438 153.394531 261.722656 187.46875 261.722656 C 221.539062 261.722656 252.058594 246.523438 272.621094 222.535156 C 284.488281 221.570312 299.585938 222.9375 299.589844 222.9375 C 272.015625 215.210938 232 210.34375 187.46875 210.34375 C 142.933594 210.34375 102.921875 215.210938 75.347656 222.9375 " fill-opacity="1" fill-rule="nonzero"/></g><path fill="#26973c" d="M 177.378906 109.335938 C 178.628906 109.527344 179.808594 109.289062 180.59375 108.765625 C 179.644531 108.984375 178.574219 109.035156 177.457031 108.859375 C 176.34375 108.6875 175.339844 108.316406 174.515625 107.816406 C 175.089844 108.554688 176.125 109.140625 177.378906 109.335938 " fill-opacity="1" fill-rule="nonzero"/><path fill="#26973c" d="M 126.507812 180.105469 C 127.171875 180.550781 128.167969 180.753906 129.226562 180.585938 C 130.289062 180.421875 131.167969 179.929688 131.648438 179.304688 C 130.949219 179.726562 130.101562 180.039062 129.160156 180.1875 C 128.21875 180.332031 127.308594 180.292969 126.507812 180.105469 " fill-opacity="1" fill-rule="nonzero"/><path fill="#26973c" d="M 178.105469 95.347656 C 179.269531 95.527344 180.359375 95.304688 181.089844 94.816406 C 180.207031 95.023438 179.214844 95.066406 178.179688 94.90625 C 177.148438 94.746094 176.21875 94.402344 175.453125 93.941406 C 175.980469 94.621094 176.945312 95.164062 178.105469 95.347656 " fill-opacity="1" fill-rule="nonzero"/><path fill="#26973c" d="M 244.234375 167.726562 C 244.675781 168.292969 245.480469 168.746094 246.449219 168.894531 C 247.417969 169.046875 248.328125 168.863281 248.933594 168.457031 C 248.199219 168.625 247.371094 168.664062 246.511719 168.527344 C 245.648438 168.394531 244.875 168.109375 244.234375 167.726562 " fill-opacity="1" fill-rule="nonzero"/><path fill="#26973c" d="M 245.777344 180.1875 C 244.835938 180.039062 243.984375 179.726562 243.285156 179.304688 C 243.769531 179.929688 244.644531 180.421875 245.707031 180.585938 C 246.769531 180.753906 247.765625 180.550781 248.429688 180.105469 C 247.628906 180.292969 246.71875 180.332031 245.777344 180.1875 " fill-opacity="1" fill-rule="nonzero"/><path fill="#26973c" d="M 176.59375 124.425781 C 177.945312 124.632812 179.210938 124.375 180.058594 123.8125 C 179.035156 124.046875 177.878906 124.101562 176.679688 123.914062 C 175.480469 123.726562 174.402344 123.328125 173.507812 122.792969 C 174.125 123.585938 175.242188 124.214844 176.59375 124.425781 " fill-opacity="1" fill-rule="nonzero"/><path fill="#26973c" d="M 174.519531 157.957031 C 176.128906 158.210938 177.636719 157.902344 178.644531 157.226562 C 177.429688 157.507812 176.050781 157.574219 174.621094 157.351562 C 173.195312 157.128906 171.910156 156.652344 170.847656 156.015625 C 171.582031 156.957031 172.914062 157.707031 174.519531 157.957031 " fill-opacity="1" fill-rule="nonzero"/><path fill="#26973c" d="M 260.429688 139.269531 C 261.199219 139.148438 261.832031 138.792969 262.183594 138.339844 C 261.675781 138.644531 261.0625 138.875 260.382812 138.976562 C 259.699219 139.085938 259.042969 139.054688 258.464844 138.921875 C 258.945312 139.242188 259.664062 139.386719 260.429688 139.269531 " fill-opacity="1" fill-rule="nonzero"/><path fill="#26973c" d="M 175.640625 140.242188 C 177.109375 140.472656 178.488281 140.1875 179.40625 139.574219 C 178.296875 139.832031 177.039062 139.890625 175.734375 139.683594 C 174.429688 139.480469 173.253906 139.046875 172.289062 138.464844 C 172.957031 139.328125 174.171875 140.011719 175.640625 140.242188 " fill-opacity="1" fill-rule="nonzero"/><path fill="#26973c" d="M 125.574219 158.050781 C 126.128906 158.425781 126.96875 158.597656 127.859375 158.457031 C 128.75 158.320312 129.488281 157.902344 129.894531 157.378906 C 129.308594 157.734375 128.59375 157.996094 127.800781 158.121094 C 127.011719 158.242188 126.25 158.210938 125.574219 158.050781 " fill-opacity="1" fill-rule="nonzero"/><path fill="#26973c" d="M 195.527344 139.574219 C 196.449219 140.1875 197.824219 140.472656 199.296875 140.242188 C 200.765625 140.011719 201.980469 139.328125 202.648438 138.464844 C 201.679688 139.046875 200.507812 139.480469 199.199219 139.683594 C 197.894531 139.890625 196.636719 139.832031 195.527344 139.574219 " fill-opacity="1" fill-rule="nonzero"/><path fill="#26973c" d="M 247.074219 158.457031 C 247.96875 158.597656 248.804688 158.425781 249.363281 158.050781 C 248.6875 158.210938 247.925781 158.242188 247.132812 158.121094 C 246.34375 157.996094 245.628906 157.734375 245.042969 157.378906 C 245.449219 157.902344 246.1875 158.320312 247.074219 158.457031 " fill-opacity="1" fill-rule="nonzero"/><path fill="#26973c" d="M 194.878906 123.8125 C 195.722656 124.375 196.992188 124.632812 198.34375 124.425781 C 199.691406 124.214844 200.808594 123.585938 201.425781 122.792969 C 200.535156 123.328125 199.457031 123.726562 198.257812 123.914062 C 197.054688 124.101562 195.898438 124.046875 194.878906 123.8125 " fill-opacity="1" fill-rule="nonzero"/><path fill="#26973c" d="M 196.292969 157.226562 C 197.300781 157.902344 198.808594 158.210938 200.417969 157.957031 C 202.027344 157.707031 203.355469 156.957031 204.089844 156.015625 C 203.027344 156.652344 201.742188 157.128906 200.3125 157.351562 C 198.886719 157.574219 197.507812 157.507812 196.292969 157.226562 " fill-opacity="1" fill-rule="nonzero"/><path fill="#26973c" d="M 128.488281 168.894531 C 129.457031 168.746094 130.261719 168.292969 130.703125 167.726562 C 130.0625 168.109375 129.289062 168.394531 128.425781 168.527344 C 127.566406 168.664062 126.734375 168.625 126.003906 168.457031 C 126.609375 168.863281 127.519531 169.046875 128.488281 168.894531 " fill-opacity="1" fill-rule="nonzero"/><path fill="#26973c" d="M 248.074219 139.269531 C 248.84375 139.386719 249.5625 139.242188 250.042969 138.921875 C 249.460938 139.054688 248.804688 139.085938 248.125 138.976562 C 247.441406 138.875 246.828125 138.644531 246.324219 138.339844 C 246.671875 138.792969 247.308594 139.148438 248.074219 139.269531 " fill-opacity="1" fill-rule="nonzero"/><path fill="#26973c" d="M 196.828125 95.347656 C 197.992188 95.164062 198.953125 94.621094 199.484375 93.941406 C 198.71875 94.402344 197.785156 94.746094 196.753906 94.90625 C 195.722656 95.066406 194.726562 95.023438 193.847656 94.816406 C 194.574219 95.304688 195.667969 95.527344 196.828125 95.347656 " fill-opacity="1" fill-rule="nonzero"/><path fill="#26973c" d="M 247.59375 148.5 C 248.421875 148.628906 249.199219 148.46875 249.714844 148.125 C 249.089844 148.269531 248.382812 148.300781 247.648438 148.1875 C 246.910156 148.070312 246.25 147.828125 245.707031 147.5 C 246.085938 147.984375 246.765625 148.371094 247.59375 148.5 " fill-opacity="1" fill-rule="nonzero"/><path fill="#26973c" d="M 194.34375 108.765625 C 195.128906 109.289062 196.304688 109.527344 197.558594 109.335938 C 198.808594 109.140625 199.847656 108.554688 200.417969 107.816406 C 199.589844 108.316406 198.589844 108.6875 197.476562 108.859375 C 196.363281 109.035156 195.292969 108.984375 194.34375 108.765625 " fill-opacity="1" fill-rule="nonzero"/><path fill="#26973c" d="M 114.023438 148.5 C 114.851562 148.628906 115.628906 148.46875 116.144531 148.125 C 115.519531 148.269531 114.8125 148.300781 114.078125 148.1875 C 113.34375 148.070312 112.683594 147.828125 112.136719 147.5 C 112.511719 147.984375 113.199219 148.371094 114.023438 148.5 " fill-opacity="1" fill-rule="nonzero"/><path fill="#26973c" d="M 113.507812 158.457031 C 114.398438 158.597656 115.234375 158.425781 115.792969 158.050781 C 115.117188 158.210938 114.355469 158.242188 113.566406 158.121094 C 112.769531 157.996094 112.058594 157.734375 111.46875 157.378906 C 111.878906 157.902344 112.613281 158.320312 113.507812 158.457031 " fill-opacity="1" fill-rule="nonzero"/><path fill="#26973c" d="M 125.21875 148.125 C 125.738281 148.46875 126.515625 148.628906 127.339844 148.5 C 128.167969 148.371094 128.851562 147.984375 129.230469 147.5 C 128.683594 147.828125 128.023438 148.070312 127.289062 148.1875 C 126.554688 148.300781 125.84375 148.269531 125.21875 148.125 " fill-opacity="1" fill-rule="nonzero"/><path fill="#26973c" d="M 259.570312 168.457031 C 260.179688 168.863281 261.089844 169.046875 262.058594 168.894531 C 263.027344 168.746094 263.828125 168.292969 264.269531 167.726562 C 263.632812 168.109375 262.855469 168.394531 261.996094 168.527344 C 261.132812 168.664062 260.304688 168.625 259.570312 168.457031 " fill-opacity="1" fill-rule="nonzero"/><path fill="#26973c" d="M 112.878906 168.894531 C 113.847656 169.046875 114.757812 168.863281 115.363281 168.457031 C 114.632812 168.625 113.800781 168.664062 112.941406 168.527344 C 112.078125 168.394531 111.304688 168.109375 110.664062 167.726562 C 111.105469 168.292969 111.90625 168.746094 112.878906 168.894531 " fill-opacity="1" fill-rule="nonzero"/><path fill="#26973c" d="M 112.136719 180.585938 C 113.199219 180.753906 114.195312 180.550781 114.859375 180.105469 C 114.058594 180.292969 113.148438 180.332031 112.207031 180.1875 C 111.261719 180.039062 110.414062 179.726562 109.714844 179.304688 C 110.199219 179.929688 111.074219 180.421875 112.136719 180.585938 " fill-opacity="1" fill-rule="nonzero"/><path fill="#26973c" d="M 254.730469 131.953125 C 255.386719 131.6875 256.011719 131.070312 256.382812 130.226562 C 256.753906 129.386719 256.777344 128.519531 256.519531 127.882812 C 256.566406 128.578125 256.4375 129.351562 256.101562 130.113281 C 255.769531 130.875 255.277344 131.503906 254.730469 131.953125 " fill-opacity="1" fill-rule="nonzero"/><path fill="#26973c" d="M 121.15625 131.953125 C 121.8125 131.6875 122.441406 131.070312 122.8125 130.226562 C 123.183594 129.386719 123.207031 128.519531 122.949219 127.882812 C 122.996094 128.578125 122.867188 129.351562 122.53125 130.113281 C 122.199219 130.875 121.710938 131.503906 121.15625 131.953125 " fill-opacity="1" fill-rule="nonzero"/><path fill="#26973c" d="M 188.1875 84.265625 C 189.183594 83.859375 190.132812 82.917969 190.695312 81.644531 C 191.257812 80.367188 191.292969 79.058594 190.902344 78.097656 C 190.976562 79.144531 190.777344 80.316406 190.273438 81.472656 C 189.761719 82.628906 189.023438 83.582031 188.1875 84.265625 " fill-opacity="1" fill-rule="nonzero"/><path fill="#26973c" d="M 260.074219 180.105469 C 260.742188 180.550781 261.738281 180.753906 262.800781 180.585938 C 263.859375 180.421875 264.738281 179.929688 265.222656 179.304688 C 264.523438 179.726562 263.671875 180.039062 262.730469 180.1875 C 261.785156 180.332031 260.878906 180.292969 260.074219 180.105469 " fill-opacity="1" fill-rule="nonzero"/><path fill="#26973c" d="M 259.144531 158.050781 C 259.703125 158.425781 260.539062 158.597656 261.429688 158.457031 C 262.320312 158.320312 263.058594 157.902344 263.464844 157.378906 C 262.875 157.734375 262.164062 157.996094 261.375 158.121094 C 260.578125 158.242188 259.816406 158.210938 259.144531 158.050781 " fill-opacity="1" fill-rule="nonzero"/><path fill="#26973c" d="M 126.859375 139.269531 C 127.628906 139.148438 128.261719 138.792969 128.613281 138.339844 C 128.105469 138.644531 127.492188 138.875 126.808594 138.976562 C 126.128906 139.085938 125.472656 139.054688 124.890625 138.921875 C 125.371094 139.242188 126.09375 139.386719 126.859375 139.269531 " fill-opacity="1" fill-rule="nonzero"/><path fill="#26973c" d="M 258.789062 148.125 C 259.308594 148.46875 260.085938 148.628906 260.914062 148.5 C 261.738281 148.371094 262.421875 147.984375 262.800781 147.5 C 262.253906 147.828125 261.59375 148.070312 260.859375 148.1875 C 260.125 148.300781 259.417969 148.269531 258.789062 148.125 " fill-opacity="1" fill-rule="nonzero"/><path fill="#26973c" d="M 114.503906 139.269531 C 115.273438 139.386719 115.992188 139.242188 116.472656 138.921875 C 115.894531 139.054688 115.238281 139.085938 114.554688 138.976562 C 113.875 138.875 113.257812 138.644531 112.75 138.339844 C 113.105469 138.792969 113.738281 139.148438 114.503906 139.269531 " fill-opacity="1" fill-rule="nonzero"/></svg>